<?xml version="1.0" encoding="utf-8"?>

<svg fill="#000000" viewBox="0 0 24.00 24.00" xmlns="http://www.w3.org/2000/svg" stroke="#000000" stroke-width="0.00024000000000000003" transform="rotate(0)">
	<g transform="rotate(45 34 11) scale(0.6) translate(8 8)">
		<path d="M30.8,18.6c0.3-0.4,0.3-1-0.1-1.3s-0.9-0.4-1.3-0.1c-3.6,2.8-5.1,2.8-8.8,0c-0.4-0.3-1-0.3-1.3,0.1
			c-0.4,0.4-0.4,0.9-0.1,1.3c2.8,3.6,2.8,5.1,0,8.8c-0.3,0.4-0.3,1,0.1,1.3c0.4,0.4,0.9,0.4,1.3,0.1c3.6-2.8,5.1-2.8,8.8,0
			c0.2,0.1,0.4,0.2,0.6,0.2c0.3,0,0.5-0.1,0.7-0.3c0.4-0.4,0.4-0.9,0.1-1.3C27.9,23.7,27.9,22.3,30.8,18.6z"/>
	</g>
	<g id="SVGRepo_bgCarrier" stroke-width="0"></g>
	<g id="SVGRepo_tracerCarrier" stroke-linecap="round" stroke-linejoin="round"></g>
	<g id="SVGRepo_iconCarrier">
		<path d="M2,9A1,1,0,0,0,1,10V18a1,1,0,0,0,1,1h7.649l3.726,2.781A1,1,0,0,0,14,21V19h2a1,1,0,0,0,1-1V10a1,1,0,0,0-1-1ZM15,17H13a1,1,0,0,0-1,1v0.919l-2.375-1.7A1,1,0,0,0,9,17H3V11H15Z"></path>
	</g>
</svg>